<?xml version="1.0" encoding="UTF-8" standalone="no"?>
<!-- Created with Inkscape (http://www.inkscape.org/) -->

<svg
   version="1.1"
   id="svg103"
   width="450.67801"
   height="444.22684"
   viewBox="0 0 450.67801 444.22684"
   sodipodi:docname="农行.svg"
   xml:space="preserve"
   inkscape:version="1.2.2 (b0a84865, 2022-12-01)"
   xmlns:inkscape="http://www.inkscape.org/namespaces/inkscape"
   xmlns:sodipodi="http://sodipodi.sourceforge.net/DTD/sodipodi-0.dtd"
   xmlns="http://www.w3.org/2000/svg"
   xmlns:svg="http://www.w3.org/2000/svg"><defs
     id="defs107" /><sodipodi:namedview
     id="namedview105"
     pagecolor="#ffffff"
     bordercolor="#000000"
     borderopacity="0.25"
     inkscape:showpageshadow="2"
     inkscape:pageopacity="0.0"
     inkscape:pagecheckerboard="0"
     inkscape:deskcolor="#d1d1d1"
     showgrid="false"
     inkscape:zoom="0.4609375"
     inkscape:cx="187.66102"
     inkscape:cy="216.94915"
     inkscape:window-width="1313"
     inkscape:window-height="458"
     inkscape:window-x="0"
     inkscape:window-y="25"
     inkscape:window-maximized="0"
     inkscape:current-layer="g109" /><g
     inkscape:groupmode="layer"
     inkscape:label="Image"
     id="g109"
     transform="translate(-37.039207,-38.118644)"><path
       style="fill:#529a8b;fill-opacity:1;stroke-width:1.23582"
       d="M 254.43275,482.15505 C 192.54779,479.06917 132.42313,449.91852 93.215381,403.9909 51.888869,355.58139 31.729828,293.11248 38.241923,233.63892 c 2.973613,-27.15742 10.101939,-50.69493 23.470578,-77.49919 10.73492,-21.52361 21.52394,-36.81038 38.22353,-54.15822 20.720999,-21.525358 36.698009,-33.440814 62.427909,-46.558007 12.54547,-6.395718 38.51052,-16.069036 43.1324,-16.069036 1.78583,0 1.97514,6.551295 1.97514,68.351963 0,57.05164 0.28974,68.74858 1.75255,70.75087 1.56386,2.14063 3.79238,2.46723 20.70003,3.03367 20.25897,0.67872 23.7851,1.62651 25.80368,6.93575 1.41862,3.73128 1.59579,64.72512 0.188,64.72512 -0.54376,0 -1.68493,-0.69516 -2.53594,-1.54478 -1.17803,-1.17611 -8.83495,-1.44368 -32.08325,-1.12115 -30.14096,0.41814 -30.56776,0.3885 -32.99397,-2.29168 -2.38907,-2.63915 -2.46769,-4.84332 -2.80338,-78.58943 -0.18995,-41.73077 -0.62092,-75.874128 -0.95771,-75.874128 -0.3368,0 -4.35227,1.8901 -8.9233,4.20021 -29.32432,14.819958 -58.8801,45.544098 -75.01659,77.982018 -14.366109,28.87907 -19.900549,54.3549 -18.793169,86.50761 0.79908,23.20133 4.03691,39.19384 11.95001,59.02435 23.529569,58.96584 77.748799,102.95656 137.516149,111.57354 l 5.88369,0.84828 -0.32248,-52.35587 -0.32248,-52.35586 -22.24481,-0.63159 c -12.23465,-0.34738 -23.26062,-1.11837 -24.50217,-1.71332 -1.24156,-0.59497 -2.77089,-2.4324 -3.39851,-4.0832 -0.62764,-1.65081 -1.14116,-16.8811 -1.14116,-33.84508 v -30.84362 l 3.34161,2.19119 c 3.59461,2.35706 11.14018,2.66195 42.38384,1.71258 16.65727,-0.50614 21.41892,0.58419 23.14793,5.30048 0.52284,1.42618 0.95062,16.77412 0.95062,34.10654 v 31.51349 l 5.25224,0.38001 5.25225,0.38002 v -31.44764 c 0,-29.1444 0.17335,-31.66132 2.36692,-34.36515 2.35095,-2.89782 2.55321,-2.91872 29.96871,-3.09676 34.78843,-0.22594 32.61883,-0.0711 35.05,-2.50222 1.92755,-1.92754 2.02585,0.24354 1.49123,32.93616 l -0.57234,34.99973 -3.56565,1.97584 c -2.83218,1.5694 -7.63295,1.99103 -23.3388,2.04972 -10.87524,0.0407 -20.46832,0.17968 -21.31795,0.30895 -1.20757,0.18376 -1.54477,11.56523 -1.54477,52.13964 0,40.70573 0.3333,51.90215 1.54477,51.89336 5.01272,-0.0363 29.67744,-6.70598 40.61882,-10.98384 23.50063,-9.1883 44.77798,-23.83095 63.72643,-43.85528 24.51205,-25.90383 40.57907,-58.09175 46.95446,-94.06635 3.1482,-17.76442 2.63346,-44.7922 -1.20158,-63.09268 -6.49215,-30.97999 -18.54742,-56.1338 -38.9618,-81.29537 -13.43594,-16.56036 -35.71694,-34.59121 -54.28847,-43.93282 l -7.72389,-3.885178 -0.27562,67.679088 c -0.15158,37.22351 -0.32593,71.23338 -0.38743,75.57751 -0.10072,7.11251 -0.46782,8.20462 -3.68973,10.97599 l -3.57792,3.07759 -28.20768,-0.58129 c -21.44644,-0.44196 -28.93824,-0.20227 -31.25561,0.99999 l -3.04792,1.58128 -0.30057,-24.3342 c -0.45893,-37.15466 -0.39565,-38.25928 2.40714,-42.02004 l 2.47668,-3.32317 20.54024,-0.61791 c 19.31309,-0.581 20.7082,-0.78627 23.3517,-3.43598 l 2.81146,-2.81807 -0.44672,-69.3537 c -0.41833,-64.94299 -0.31278,-69.302308 1.65958,-68.545443 1.15847,0.444548 3.58399,1.167627 5.39002,1.606842 6.6675,1.621485 25.58262,9.293353 36.51403,14.809889 63.49054,32.040494 111.29784,94.766052 125.61346,164.811142 5.10446,24.97563 4.43428,51.23446 -2.04763,80.23132 -18.68894,83.60494 -84.41945,151.83837 -165.61093,171.91713 -20.06054,4.961 -43.72702,7.43791 -62.24505,6.51452 z m -12.35823,-306.4939 c -1.01955,-0.37098 -3.38306,-2.09949 -5.25224,-3.84111 l -3.39852,-3.16659 v -61.40546 c 0,-33.772998 0.34758,-63.143329 0.77239,-65.267399 l 0.77239,-3.861947 h 23.81123 23.81124 l 0.84213,21.317946 c 0.46318,11.724867 0.66199,41.52597 0.4418,66.22468 l -0.40035,44.90675 -3.46742,2.98139 c -3.30102,2.83832 -4.24997,2.97672 -19.77317,2.88383 -8.96815,-0.0536 -17.13992,-0.4011 -18.15948,-0.77209 z"
       id="path235" /></g></svg>
