<?xml version="1.0" encoding="UTF-8" standalone="no"?>
<!-- Created with Inkscape (http://www.inkscape.org/) -->

<svg
   version="1.1"
   id="svg1569"
   width="450.26099"
   height="450.78473"
   viewBox="0 0 450.26098 450.78473"
   sodipodi:docname="中行.svg"
   xml:space="preserve"
   inkscape:version="1.2.2 (b0a84865, 2022-12-01)"
   inkscape:export-filename="中行.svg"
   inkscape:export-xdpi="96"
   inkscape:export-ydpi="96"
   xmlns:inkscape="http://www.inkscape.org/namespaces/inkscape"
   xmlns:sodipodi="http://sodipodi.sourceforge.net/DTD/sodipodi-0.dtd"
   xmlns="http://www.w3.org/2000/svg"
   xmlns:svg="http://www.w3.org/2000/svg"><defs
     id="defs1573" /><sodipodi:namedview
     id="namedview1571"
     pagecolor="#ffffff"
     bordercolor="#000000"
     borderopacity="0.25"
     inkscape:showpageshadow="2"
     inkscape:pageopacity="0.0"
     inkscape:pagecheckerboard="0"
     inkscape:deskcolor="#d1d1d1"
     showgrid="false"
     inkscape:zoom="0.4609375"
     inkscape:cx="122.57627"
     inkscape:cy="158.37288"
     inkscape:window-width="1313"
     inkscape:window-height="458"
     inkscape:window-x="0"
     inkscape:window-y="25"
     inkscape:window-maximized="0"
     inkscape:current-layer="g1575" /><g
     inkscape:groupmode="layer"
     inkscape:label="Image"
     id="g1575"
     transform="translate(-99.286886,-96.733556)"><path
       style="fill:#992c36;fill-opacity:1;stroke-width:1.23567"
       d="m 293.9398,546.36384 c -28.92751,-3.72054 -53.36996,-12.22523 -81.98143,-28.52522 -20.95007,-11.93529 -33.25602,-21.34034 -48.45721,-37.03431 -33.15624,-34.23107 -52.41188,-72.9941 -61.9069,-124.62324 -3.079645,-16.74557 -3.07568,-56.51716 0.007,-73.52248 6.10418,-33.6695 15.31148,-56.87339 33.78702,-85.14873 12.20845,-18.68409 17.13369,-24.79106 31.94002,-39.6034 16.36564,-16.37227 31.70154,-27.5253 52.47084,-38.15936 23.50963,-12.03714 43.59936,-18.66528 66.33237,-21.884878 16.20693,-2.29532 66.16532,-0.868296 80.09477,2.287858 45.55994,10.32299 81.89736,29.93985 114.70698,61.92489 25.91797,25.2666 42.00146,48.81431 53.94544,78.98113 11.43814,28.88916 15.56752,54.15442 14.5095,88.77474 -1.26886,41.51837 -9.23634,70.12795 -28.58075,102.62731 -20.43305,34.32839 -43.53526,58.45947 -76.8623,80.28542 -29.68619,19.44154 -56.59317,29.30012 -91.89669,33.67045 -12.07836,1.49524 -46.32326,1.46564 -58.10899,-0.0502 z m 6.17836,-89.47549 v -41.39502 l -18.22616,-0.0148 c -25.00489,-0.0201 -35.01872,-2.99143 -46.85676,-13.90335 -6.36684,-5.86875 -10.39269,-12.27577 -14.22149,-22.63306 -2.53307,-6.85223 -2.73551,-9.88307 -3.19803,-47.88073 -0.56359,-46.30151 0.41543,-57.92253 5.8707,-69.68533 6.8895,-14.85534 20.90266,-25.7609 36.94997,-28.7558 3.66077,-0.68321 14.92083,-1.24221 25.02236,-1.24221 l 18.36642,5e-5 V 188.577 145.77588 l -9.32513,0.84502 c -23.44767,2.12478 -54.91521,15.81004 -81.09325,35.26751 -26.6681,19.82172 -44.79134,45.92012 -56.77289,81.75592 -7.21366,21.57538 -9.76623,34.27326 -10.5915,52.68769 -1.52527,34.03401 6.44713,64.15026 25.17411,95.0966 11.56571,19.11235 18.49464,28.04004 31.53003,40.62538 22.91003,22.11903 52.72171,37.65335 83.77924,43.65582 3.7379,0.72241 7.9083,1.53248 9.26753,1.80015 1.35924,0.26766 2.88839,0.55116 3.39811,0.62999 0.5097,0.0789 0.92674,-18.4844 0.92674,-41.25167 z m 58.68111,39.52533 c 18.27886,-2.49571 53.8691,-18.55942 73.77391,-33.29796 36.43677,-26.97965 56.8899,-58.5177 66.79897,-103.0018 2.24665,-10.08573 2.6696,-15.94285 2.69322,-37.29599 0.0326,-29.43853 -2.13724,-42.57148 -10.48054,-63.4339 -15.60135,-39.01111 -51.21504,-78.73857 -86.70887,-96.72466 -15.617,-7.91373 -46.08586,-17.77823 -54.91228,-17.77823 h -2.92285 l 0.32536,41.70394 0.32536,41.70393 22.24209,0.62872 c 21.78615,0.61585 22.4113,0.70867 30.4959,4.52815 14.3255,6.76792 24.18613,18.00015 29.33806,33.41889 2.40772,7.20584 2.56614,10.3968 2.54603,51.2804 -0.0281,56.92315 -1.27946,63.32061 -15.3619,78.53133 -5.16632,5.58024 -9.6904,8.96136 -16.49324,12.32639 l -9.37416,4.63694 -22.00532,0.3869 -22.00531,0.38693 v 41.11107 c 0,22.61108 0.37681,41.4879 0.83738,41.94845 0.46055,0.46055 1.71167,0.59996 2.78026,0.30981 1.06859,-0.29016 4.71716,-0.90634 8.10793,-1.36931 z m 25.03567,-132.58367 c 1.16247,-1.46225 1.5446,-11.65236 1.5446,-41.19012 0,-39.87226 -0.47428,-44.51108 -4.71738,-46.1393 -1.05119,-0.40339 -26.69331,-0.71258 -56.98247,-0.68709 -54.89008,0.0463 -55.07843,0.0551 -57.28086,2.71421 -2.04049,2.46362 -2.18241,5.78338 -1.85351,43.36023 l 0.35619,40.69236 2.89455,2.3426 c 2.7775,2.24789 5.1512,2.31243 58.69442,1.59633 48.67248,-0.65099 55.99717,-0.99448 57.34446,-2.68922 z"
       id="path1581" /></g></svg>
