<?xml version="1.0" encoding="UTF-8" standalone="no"?>
<!-- Created with Inkscape (http://www.inkscape.org/) -->

<svg
   version="1.1"
   id="svg1350"
   width="450"
   height="450"
   viewBox="0 0 450 450"
   sodipodi:docname="建行.svg"
   inkscape:version="1.2.2 (b0a84865, 2022-12-01)"
   xmlns:inkscape="http://www.inkscape.org/namespaces/inkscape"
   xmlns:sodipodi="http://sodipodi.sourceforge.net/DTD/sodipodi-0.dtd"
   xmlns="http://www.w3.org/2000/svg"
   xmlns:svg="http://www.w3.org/2000/svg">
  <defs
     id="defs1354" />
  <sodipodi:namedview
     id="namedview1352"
     pagecolor="#ffffff"
     bordercolor="#000000"
     borderopacity="0.25"
     inkscape:showpageshadow="2"
     inkscape:pageopacity="0.0"
     inkscape:pagecheckerboard="0"
     inkscape:deskcolor="#d1d1d1"
     showgrid="false"
     inkscape:zoom="0.417193"
     inkscape:cx="-133.03195"
     inkscape:cy="201.34566"
     inkscape:window-width="1313"
     inkscape:window-height="458"
     inkscape:window-x="0"
     inkscape:window-y="25"
     inkscape:window-maximized="0"
     inkscape:current-layer="g1356" />
  <g
     inkscape:groupmode="layer"
     inkscape:label="Image"
     id="g1356"
     transform="translate(-4.7939444,-2.3969722)">
    <path
       style="fill:#263c73;fill-opacity:1;stroke-width:2.25"
       d="M 187.19091,447.1702 C 115.85082,431.28639 59.082339,383.95546 34.377159,319.76121 22.806599,289.6961 19.552939,270.56208 19.695019,233.41894 c 0.11768,-30.7639 0.68866,-35.44212 6.45346,-52.875 12.19185,-36.86846 29.53343,-66.02476 53.30959,-89.629092 19.00575,-18.86841 55.354221,-43.012695 78.751721,-52.310419 17.25637,-6.857352 20.95592,-7.50123 43.60612,-7.589275 38.0327,-0.147847 35.13054,-2.132746 117.57337,80.412966 l 70.15327,70.24082 -28.29965,26.69653 -28.29964,26.69651 -16.06367,-15.4693 c -8.83501,-8.50813 -31.83107,-30.89969 -51.10232,-49.75903 -19.27127,-18.85934 -36.53837,-34.28971 -38.37135,-34.28971 -4.16656,0 -99.10775,95.03903 -101.55798,101.66263 -1.55751,4.21033 4.96157,11.62973 49.39704,56.21893 28.15524,28.25264 52.24126,51.36844 53.52448,51.36844 1.28323,0 25.60414,-23.2875 54.04645,-51.75 l 51.71331,-51.75 h 52.66505 52.66503 l -1.33844,18.5625 c -1.62396,22.52259 -10.09977,52.62541 -21.05633,74.78395 -25.54348,51.65921 -78.03578,93.2989 -139.28699,110.48992 -18.55575,5.20794 -71.43329,6.39344 -90.98663,2.03989 z M 341.15506,100.60463 C 272.40458,29.984996 267.00649,25.863637 235.69074,20.083934 l -15.58526,-2.87645 12.23022,-5.334308 c 16.6678,-7.2697958 54.94669,-9.0441718 76.35521,-3.539363 27.26305,7.010187 42.08754,17.975219 89.51218,66.208327 23.86296,24.26974 44.31735,45.74105 45.45421,47.71402 1.63024,2.82922 -2.38433,7.69664 -18.99905,23.03516 l -21.06605,19.44795 z"
       id="path1362" />
  </g>
</svg>
