<?xml version="1.0" encoding="UTF-8" standalone="no"?>
<!-- Created with Inkscape (http://www.inkscape.org/) -->

<svg
   version="1.1"
   id="svg1350"
   width="450"
   height="450"
   viewBox="0 0 450 450"
   sodipodi:docname="CCB1.svg"
   inkscape:version="1.2.2 (b0a84865, 2022-12-01)"
   xmlns:inkscape="http://www.inkscape.org/namespaces/inkscape"
   xmlns:sodipodi="http://sodipodi.sourceforge.net/DTD/sodipodi-0.dtd"
   xmlns="http://www.w3.org/2000/svg"
   xmlns:svg="http://www.w3.org/2000/svg">
  <defs
     id="defs1354" />
  <sodipodi:namedview
     id="namedview1352"
     pagecolor="#ffffff"
     bordercolor="#000000"
     borderopacity="0.25"
     inkscape:showpageshadow="2"
     inkscape:pageopacity="0.0"
     inkscape:pagecheckerboard="0"
     inkscape:deskcolor="#d1d1d1"
     showgrid="false"
     inkscape:zoom="0.417193"
     inkscape:cx="-343.9655"
     inkscape:cy="210.93355"
     inkscape:window-width="1313"
     inkscape:window-height="620"
     inkscape:window-x="16"
     inkscape:window-y="198"
     inkscape:window-maximized="0"
     inkscape:current-layer="g1356" />
  <g
     inkscape:groupmode="layer"
     inkscape:label="Image"
     id="g1356"
     transform="translate(-4.7939444,-2.3969722)">
    <path
       style="fill:#da251e;fill-opacity:1;stroke-width:1.98271"
       d="M 214.01801,443.28659 C 121.24841,433.71305 45.797783,363.99399 26.405483,269.92533 21.058013,243.98606 21.951873,198.96054 28.282393,175.37629 44.452233,115.13666 83.137933,64.752914 135.7008,35.476315 172.61764,14.914551 226.62856,6.362614 270.76123,14.091748 407.93552,38.115181 486.61055,192.4299 426.44194,319.44697 c -11.32392,23.90513 -22.4942,40.26331 -39.78489,58.26255 -24.09574,25.08321 -50.37343,42.43276 -82.69758,54.59944 -24.73618,9.31048 -62.01067,13.8599 -89.94146,10.97763 z m 64.38668,-39.39326 C 341.53391,387.31746 390.71437,337.31998 407.43832,272.71651 425.23117,203.98429 399.99764,128.47122 344.50008,84.369418 327.53424,70.887087 295.57368,54.716 276.47342,49.949638 244.14312,41.882236 203.41618,44.552473 171.58685,56.827244 139.15544,69.33408 101.71147,100.29257 84.486353,128.84161 c -36.66323,60.76498 -37.24846,133.7624 -1.56012,194.61695 10.4103,17.75131 35.631157,44.12372 53.851997,56.31043 41.04692,27.45373 94.36059,36.53518 141.62646,24.12434 z M 117.85636,290.74373 v -49.56775 h 33.70613 33.70617 V 226.3538 211.53125 l -33.21044,-0.54387 -33.21041,-0.5435 -0.52982,-50.06324 -0.52981,-50.06363 h 53.56728 53.56725 v 17.84429 17.84466 h -35.68883 -35.68884 v 14.82217 14.82255 l 33.21045,0.54312 33.21044,0.5435 v 49.56775 49.56775 l -33.21044,0.54349 -33.21045,0.54388 v 14.82217 14.82255 h 35.68884 35.68883 v 16.85329 16.85292 h -53.53323 -53.53323 z m 124.9109,32.71483 v -16.85291 h 36.68024 36.6802 V 291.7351 276.86492 H 282.42153 248.7154 V 226.3058 175.74668 h 33.70613 33.70617 v -14.82557 -14.82558 l -36.18456,-0.54047 -36.18444,-0.54047 -0.57252,-17.34879 -0.57256,-17.34879 h 53.61048 53.61048 v 50.5595 50.55912 h -33.70613 -33.70616 v 14.87017 14.87018 h 33.70616 33.70613 v 49.56775 49.56812 h -53.5333 -53.53323 z"
       id="path258" />
  </g>
</svg>
